<svg xmlns="http://www.w3.org/2000/svg" viewBox="0 0 400 300" width="406" height="306" class="illustration styles_illustrationTablet__1DWOa"><g id="_97_graduation_outline" data-name="#97_graduation_outline"><path d="M232.54,195.83a23.25,23.25,0,0,1,1.22,5.08,22.15,22.15,0,0,1,.19,3v36.35h-69.2V203.86a22.15,22.15,0,0,1,.19-3,23.25,23.25,0,0,1,1.22-5.08l33.19,14.9Z" fill="#093f68"></path><path d="M234,241.21h-69.2a1,1,0,0,1-1-1V203.86a22,22,0,0,1,.2-3.08,24.16,24.16,0,0,1,1.27-5.29,1,1,0,0,1,.55-.58,1,1,0,0,1,.8,0l32.78,14.71,32.78-14.71a1,1,0,0,1,.8,0,1,1,0,0,1,.55.58,24.25,24.25,0,0,1,1.27,5.3,23.4,23.4,0,0,1,.2,3.07v36.35A1,1,0,0,1,234,241.21Zm-68.2-2H233V203.86a21.44,21.44,0,0,0-.18-2.82,22.43,22.43,0,0,0-.83-3.84l-32.18,14.44a1,1,0,0,1-.82,0l-32.18-14.45a22.54,22.54,0,0,0-.83,3.85,21.44,21.44,0,0,0-.18,2.82Z" fill="#093f68"></path><path d="M231.31,193.06l-32,16.4-32-16.4c4.28-5.63,7.61-12.61,20.78-12.61h22.36C222.3,180.45,227,187.43,231.31,193.06Z" fill="#68e1fd"></path><path d="M199.35,210.46a1,1,0,0,1-.46-.11l-32-16.4a1,1,0,0,1-.51-.67,1,1,0,0,1,.17-.82c.49-.64,1-1.3,1.44-2,3.73-5.18,8-11.05,20.14-11.05h22.36c11.75,0,16.88,6.79,21,12.25l.57.76a1,1,0,0,1,.18.82,1,1,0,0,1-.52.67l-32,16.4A1,1,0,0,1,199.35,210.46ZM168.9,192.71l30.45,15.63,30.44-15.62c-4-5.33-8.64-11.27-19.26-11.27H188.17c-11.15,0-14.9,5.2-18.52,10.22Z" fill="#093f68"></path><polygon points="202.46 211.86 210.53 180.45 188.17 180.45 196.64 211.86 202.46 211.86" fill="#fff"></polygon><path d="M202.46,212.86h-5.82a1,1,0,0,1-1-.74l-8.48-31.41a1,1,0,0,1,1-1.26h22.36a1,1,0,0,1,1,1.25l-8.08,31.41A1,1,0,0,1,202.46,212.86Zm-5.05-2h4.27l7.56-29.41H189.48Z" fill="#093f68"></path><polygon points="197.8 189.58 199.53 192.11 194.81 205.04 199.35 207.03 204.25 204.89 200.37 191.94 201.9 189.48 200 186.87 197.8 189.58" fill="#093f68"></polygon><path d="M199.35,208a1.1,1.1,0,0,1-.4-.08l-4.54-2a1,1,0,0,1-.54-1.26l4.54-12.45L197,190.14A1,1,0,0,1,197,189l2.19-2.71a1,1,0,0,1,.81-.37,1,1,0,0,1,.78.41l1.9,2.61a1,1,0,0,1,0,1.12l-1.29,2.07,3.75,12.52a1,1,0,0,1-.56,1.21l-4.9,2.14A1.1,1.1,0,0,1,199.35,208Zm-3.28-3.53,3.28,1.44,3.69-1.61-3.11-10.4Zm3-14.87.82,1.22.83-1.33-.74-1Z" fill="#093f68"></path><path d="M197.6,87.79a74.37,74.37,0,0,1,18.73,2.09c6.63,1.65,13.18,4.5,18.34,9.06,6,5.28,8,12.21,8,20.09v27.71H160.13c-.46-1.63.26-3.55.33-5.17a21.86,21.86,0,0,0-.8-5.36A74.6,74.6,0,0,1,158,122.48,33.91,33.91,0,0,1,169,96.94C176.15,90.49,187,88,197.6,87.79Z" fill="#725858"></path><path d="M242.62,147.74H160.13a1,1,0,0,1-1-.72,8.6,8.6,0,0,1,.08-3.85,13.4,13.4,0,0,0,.21-1.64,15,15,0,0,0-.52-3.93c-.09-.39-.18-.79-.26-1.19A76.17,76.17,0,0,1,157,122.5a35.09,35.09,0,0,1,11.27-26.3c8.37-7.53,20.54-9.28,29.27-9.41h0a75.93,75.93,0,0,1,19,2.12c7.63,1.9,13.94,5,18.76,9.28,5.66,5,8.29,11.62,8.29,20.84v27.71A1,1,0,0,1,242.62,147.74Zm-81.64-2h80.64V119c0-8.61-2.42-14.75-7.61-19.34-4.58-4-10.61-7-17.92-8.84a73.65,73.65,0,0,0-18.47-2.06h0c-11.87.18-21.8,3.34-28,8.9A33,33,0,0,0,159,122.47a74.1,74.1,0,0,0,1.6,13.55c.08.38.16.77.25,1.15a16.88,16.88,0,0,1,.57,4.44,15.18,15.18,0,0,1-.24,1.9A11.08,11.08,0,0,0,161,145.74Z" fill="#093f68"></path><path d="M193.88,174h11.77a0,0,0,0,1,0,0v6.77a5,5,0,0,1-5,5h-1.78a5,5,0,0,1-5-5V174A0,0,0,0,1,193.88,174Z" fill="#ffc9b0"></path><path d="M200.66,186.75h-1.78a6,6,0,0,1-6-6V174a1,1,0,0,1,1-1h11.78a1,1,0,0,1,1,1v6.78A6,6,0,0,1,200.66,186.75ZM194.88,175v5.78a4,4,0,0,0,4,4h1.78a4,4,0,0,0,4-4V175Z" fill="#093f68"></path><ellipse cx="166.13" cy="143.4" rx="11.44" ry="9.85" fill="#ffc9b0"></ellipse><path d="M166.13,154.25c-6.86,0-12.44-4.87-12.44-10.85s5.58-10.86,12.44-10.86,12.44,4.87,12.44,10.86S173,154.25,166.13,154.25Zm0-19.71c-5.75,0-10.44,4-10.44,8.86s4.69,8.85,10.44,8.85,10.44-4,10.44-8.85S171.88,134.54,166.13,134.54Z" fill="#093f68"></path><ellipse cx="232.8" cy="143.4" rx="11.44" ry="9.85" fill="#ffc9b0"></ellipse><path d="M232.8,154.25c-6.86,0-12.43-4.87-12.43-10.85s5.57-10.86,12.43-10.86,12.44,4.87,12.44,10.86S239.66,154.25,232.8,154.25Zm0-19.71c-5.75,0-10.43,4-10.43,8.86s4.68,8.85,10.43,8.85,10.44-4,10.44-8.85S238.56,134.54,232.8,134.54Z" fill="#093f68"></path><path d="M199.77,175.52h0A34.49,34.49,0,0,1,165.28,141V121.25a5.52,5.52,0,0,1,6-5.5c6.65.63,17.87,1.51,29,1.51a151.85,151.85,0,0,0,27.15-2.73,5.52,5.52,0,0,1,6.55,5.36l.23,21.14A34.49,34.49,0,0,1,199.77,175.52Z" fill="#ffc9b0"></path><path d="M199.77,176.52A35.53,35.53,0,0,1,164.28,141V121.25a6.52,6.52,0,0,1,7.14-6.5c7.21.69,18.09,1.51,28.91,1.51a149.38,149.38,0,0,0,27-2.72,6.53,6.53,0,0,1,7.74,6.34l.23,21.14A35.53,35.53,0,0,1,199.77,176.52Zm-29-59.8a4.53,4.53,0,0,0-4.5,4.53V141a33.49,33.49,0,1,0,67,0L233,119.91a4.52,4.52,0,0,0-5.36-4.4,152.21,152.21,0,0,1-27.34,2.75c-10.9,0-21.84-.82-29.1-1.52Z" fill="#093f68"></path><circle cx="183.8" cy="136.01" r="3.19" fill="#093f68"></circle><circle cx="216.74" cy="136.01" r="3.19" fill="#093f68"></circle><path d="M200.34,150.56a21.27,21.27,0,0,1-3.12-.25,1,1,0,0,1,.35-2,15.14,15.14,0,0,0,4.73,0c.2-.92-1-4.34-2.69-7.55a1,1,0,1,1,1.78-.92c1.11,2.14,3.62,7.35,2.7,9.39a1.72,1.72,0,0,1-1.16,1A10.7,10.7,0,0,1,200.34,150.56Z" fill="#093f68"></path><path d="M186,155.43v2.66c0,4.78,6.05,8.67,13.52,8.67h0c7.46,0,13.51-3.89,13.51-8.67v-2.66Z" fill="#fff"></path><path d="M199.53,167.76c-8,0-14.52-4.34-14.52-9.67v-2.66a1,1,0,0,1,1-1h27a1,1,0,0,1,1,1v2.66C214,163.42,207.53,167.76,199.53,167.76ZM187,156.43v1.66c0,4.23,5.62,7.67,12.52,7.67S212,162.32,212,158.09v-1.66Z" fill="#093f68"></path><path d="M179.83,241.21a1,1,0,0,1-1-1V205.83a1,1,0,0,1,2,0v34.38A1,1,0,0,1,179.83,241.21Z" fill="#093f68"></path><path d="M218.87,241.21a1,1,0,0,1-1-1V205.83a1,1,0,0,1,2,0v34.38A1,1,0,0,1,218.87,241.21Z" fill="#093f68"></path><path d="M183.56,150.39a11.65,11.65,0,1,1,11.65-11.64A11.66,11.66,0,0,1,183.56,150.39Zm0-21.29a9.65,9.65,0,1,0,9.65,9.65A9.66,9.66,0,0,0,183.56,129.1Z" fill="#093f68"></path><path d="M216.74,150.39a11.65,11.65,0,1,1,11.65-11.64A11.66,11.66,0,0,1,216.74,150.39Zm0-21.29a9.65,9.65,0,1,0,9.65,9.65A9.66,9.66,0,0,0,216.74,129.1Z" fill="#093f68"></path><path d="M206.67,136.32a1,1,0,0,1-.67-.25c-6.11-5.44-11.21-.77-11.43-.57a1,1,0,0,1-1.38-1.45c.07-.06,6.63-6.16,14.14.52a1,1,0,0,1,.08,1.42A1,1,0,0,1,206.67,136.32Z" fill="#093f68"></path><path d="M189.33,125.79h0l-15.23,0a2,2,0,0,1,0-4h0l15.23,0a2,2,0,1,1,0,4Z" fill="#093f68"></path><path d="M213,126.17a2,2,0,0,1-.1-4l15.21-.78a2,2,0,1,1,.2,4l-15.21.78Z" fill="#093f68"></path><path d="M177,77.73l23,2.84,23-2.84v25.09a77.76,77.76,0,0,1-45.94,0Z" fill="#68e1fd"></path><path d="M200,107.29a74.9,74.9,0,0,1-23.31-3.53,1,1,0,0,1-.66-.94V77.73a1,1,0,0,1,.33-.75,1,1,0,0,1,.79-.24L200,79.57l22.85-2.83a1,1,0,0,1,.79.24,1,1,0,0,1,.33.75v25.09a1,1,0,0,1-.66.94A74.9,74.9,0,0,1,200,107.29Zm-22-5.2a77,77,0,0,0,43.94,0V78.86l-21.85,2.71a1,1,0,0,1-.24,0L178,78.86Z" fill="#093f68"></path><polygon points="200 98.62 152.19 77.73 200 56.84 247.81 77.73 200 98.62" fill="#68e1fd"></polygon><path d="M200,99.62a1.1,1.1,0,0,1-.4-.08L151.79,78.65a1,1,0,0,1,0-1.84L199.6,55.92a1,1,0,0,1,.8,0l47.81,20.89a1,1,0,0,1,0,1.84L200.4,99.54A1.1,1.1,0,0,1,200,99.62ZM154.69,77.73,200,97.53l45.31-19.8L200,57.93Z" fill="#093f68"></path><path d="M152.19,112.33a1,1,0,0,1-1-1V77.73a1,1,0,0,1,2,0v33.6A1,1,0,0,1,152.19,112.33Z" fill="#093f68"></path><polygon points="152.19 108.23 146.65 125.17 154.91 125.17 152.19 108.23" fill="#68e1fd"></polygon><path d="M154.91,126.17h-8.26a1,1,0,0,1-1-1.31l5.54-16.94a1,1,0,0,1,1.94.15L155.9,125a1,1,0,0,1-1,1.16Zm-6.88-2h5.71l-1.88-11.71Z" fill="#093f68"></path><path d="M233.76,200.91l-34.41,15-34.41-15a23.25,23.25,0,0,1,1.22-5.08,22.87,22.87,0,0,1,1.23-2.77l32,14,32-14a22.87,22.87,0,0,1,1.23,2.77A23.25,23.25,0,0,1,233.76,200.91Z" fill="#ffbc0e"></path><path d="M199.35,216.94a1.1,1.1,0,0,1-.4-.08l-34.41-15a1,1,0,0,1-.59-1,24.11,24.11,0,0,1,1.27-5.3,23.81,23.81,0,0,1,1.29-2.9,1,1,0,0,1,1.28-.44l31.56,13.79,31.56-13.79a1,1,0,0,1,1.28.44,24.7,24.7,0,0,1,1.29,2.9,24.25,24.25,0,0,1,1.27,5.3,1,1,0,0,1-.59,1l-34.41,15A1.1,1.1,0,0,1,199.35,216.94ZM166,200.3l33.31,14.55,33.31-14.55a22.15,22.15,0,0,0-1.06-4.13c-.23-.62-.48-1.23-.76-1.81L199.75,208a1,1,0,0,1-.8,0l-31.09-13.59c-.28.58-.53,1.19-.76,1.82A21.85,21.85,0,0,0,166,200.3Z" fill="#093f68"></path><polygon points="150.93 216.19 142.14 218.3 145.88 219.8 143.68 223.56 153.42 221.5 150.93 216.19" fill="#f56132"></polygon><path d="M143.68,224.56a1,1,0,0,1-.82-.41,1,1,0,0,1-.05-1.09l1.62-2.76-2.66-1.07a1,1,0,0,1-.62-1,1,1,0,0,1,.76-.89l8.78-2.11a1,1,0,0,1,1.14.54l2.5,5.31a1,1,0,0,1,0,.87,1,1,0,0,1-.69.53l-9.75,2.07A.71.71,0,0,1,143.68,224.56Zm1.74-6,.83.34a1,1,0,0,1,.57.6,1,1,0,0,1-.08.83l-1.06,1.81,6.3-1.34-1.61-3.43Z" fill="#093f68"></path><path d="M142,195.16l19.16,45.18c.84,2,5.08,2.08,9.47.22s7.27-5,6.43-7l-19.16-45.18Z" fill="#fff"></path><path d="M164.73,242.89h-.24c-2.2,0-3.73-.82-4.3-2.16L141,195.55a1,1,0,0,1,.53-1.31l15.89-6.74a1,1,0,0,1,.77,0,1,1,0,0,1,.55.54l19.16,45.18c1.09,2.57-1.9,6.12-7,8.27A16.62,16.62,0,0,1,164.73,242.89Zm-21.47-47.2L162,240c.24.55,1.2.91,2.51.94a14.53,14.53,0,0,0,5.65-1.26c4.29-1.81,6.36-4.56,5.9-5.64l-18.78-44.26Z" fill="#093f68"></path><path d="M166.38,208.55l2.09,4.92c.84,2-2,5.1-6.42,7s-8.64,1.76-9.48-.22l-2.09-4.92c.84,2,5.09,2.08,9.48.22S167.22,210.53,166.38,208.55Z" fill="#f56132"></path><path d="M156.19,222.77H156c-2.2,0-3.73-.81-4.3-2.15l-2.09-4.93a1,1,0,1,1,1.84-.78h0c.47,1.09,3.87,1.51,8.17-.32a14.11,14.11,0,0,0,4.83-3.19c.9-1,1.3-1.89,1.06-2.45h0a1,1,0,1,1,1.84-.78h0l2.09,4.92c1.09,2.57-1.9,6.13-6.95,8.27A16.5,16.5,0,0,1,156.19,222.77Zm-3.59-5.05.89,2.1c.23.55,1.19.91,2.51.94a14,14,0,0,0,5.66-1.25c4.28-1.82,6.35-4.56,5.89-5.65l-.89-2.1a9.78,9.78,0,0,1-.79,1,16.34,16.34,0,0,1-5.52,3.68A14.47,14.47,0,0,1,152.6,217.72Z" fill="#093f68"></path><ellipse cx="149.9" cy="191.79" rx="8.63" ry="3.9" transform="translate(-63 73.77) rotate(-22.99)" fill="#fff"></ellipse><path d="M145.6,197.72c-2.26,0-4-.74-4.57-2.17-1.09-2.57,1.9-6.12,6.95-8.27a16.24,16.24,0,0,1,6.48-1.41c2.21,0,3.74.82,4.31,2.16h0c.56,1.34,0,3-1.44,4.59a16.19,16.19,0,0,1-5.52,3.68A16.36,16.36,0,0,1,145.6,197.72Zm8.62-9.85a14.5,14.5,0,0,0-5.45,1.25c-4.29,1.82-6.36,4.57-5.9,5.65s3.87,1.51,8.16-.31a14.4,14.4,0,0,0,4.83-3.19c.89-1,1.3-1.91,1.06-2.46h0c-.23-.55-1.19-.91-2.5-.94Z" fill="#093f68"></path><circle cx="166.44" cy="213.55" r="5.46" fill="#f56132"></circle><path d="M166.44,220a6.64,6.64,0,0,1-2.43-.47,6.41,6.41,0,0,1-3.52-3.47,6.46,6.46,0,1,1,11.9-5h0a6.46,6.46,0,0,1-5.95,9Zm0-10.93a4.47,4.47,0,0,0-4.1,6.21,4.46,4.46,0,0,0,5.85,2.36,4.47,4.47,0,0,0,2.37-5.85h0A4.48,4.48,0,0,0,166.43,209.08Z" fill="#093f68"></path><path d="M151.19,236.91s-3.18-6,3.91-11.45l1.32,3.11s3.18-4.06,6.32-2.88,8,5.18,4.9,10.15C164.22,241.35,155.51,247.1,151.19,236.91Z" fill="#ffc9b0"></path><path d="M157.9,243.52a5.24,5.24,0,0,1-.56,0c-2.09-.16-5-1.36-7.06-6.18-.32-.68-3.08-7.08,4.21-12.65a1,1,0,0,1,.86-.17,1,1,0,0,1,.67.57l.72,1.7c1.36-1.27,3.8-3,6.35-2,2.39.9,5.22,3.06,6.18,5.88a6.59,6.59,0,0,1-.78,5.74C166.31,239.89,162.12,243.52,157.9,243.52Zm-3.2-16.43c-5,4.55-2.73,9.15-2.62,9.36l0,.07c1.33,3.14,3.14,4.82,5.39,5,3.38.26,7.31-3,9.29-6.19a4.62,4.62,0,0,0,.59-4c-.75-2.19-3.11-3.94-5-4.65-2.38-.89-5.16,2.53-5.18,2.57a1,1,0,0,1-.92.37,1,1,0,0,1-.79-.6Z" fill="#093f68"></path><path d="M173.68,135.77h-7.55a1,1,0,0,1,0-2h7.55a1,1,0,0,1,0,2Z" fill="#093f68"></path><path d="M233.7,135.77h-7.55a1,1,0,0,1,0-2h7.55a1,1,0,0,1,0,2Z" fill="#093f68"></path><path d="M240.49,227.81c1.34-2.05,3-4.57,3.52-5.22,2.49-3.16-.71-6.53-3.22-3.51a58.83,58.83,0,0,0-4.33,6.21l-1.29-.57c1.72-10.58.07-11.63-2.77-11.05-1.94.41-3.07,6.08-3.66,10.43a6.85,6.85,0,0,0-3.73,3.57l-1.81,4.07a6.82,6.82,0,0,0,3.46,9l4.07,1.82a6.83,6.83,0,0,0,9-3.46l1.82-4.07A6.82,6.82,0,0,0,240.49,227.81Z" fill="#ffc9b0"></path><path d="M233.5,244.16a7.87,7.87,0,0,1-3.18-.68l-4.07-1.81a7.83,7.83,0,0,1-4-10.34l1.81-4.07a7.77,7.77,0,0,1,3.73-3.85c1.29-9,3.1-10.45,4.37-10.71a3.65,3.65,0,0,1,3.4.63c1.39,1.33,1.63,4.34.76,10.24a53.52,53.52,0,0,1,3.66-5.12c1.6-1.93,3.54-1.82,4.68-.91,1.35,1.09,1.84,3.45.09,5.67-.42.54-1.79,2.58-3.07,4.55a7.89,7.89,0,0,1,.75,7.69l-1.81,4.07a7.84,7.84,0,0,1-7.16,4.64Zm0-29.61a5,5,0,0,0-.88.1s-1.63.44-2.87,9.59a1,1,0,0,1-.62.79,5.8,5.8,0,0,0-3.18,3.05l-1.82,4.06a5.8,5.8,0,0,0-.11,4.46,5.72,5.72,0,0,0,3.07,3.24l4.06,1.81a5.83,5.83,0,0,0,7.7-3l1.81-4.07a5.85,5.85,0,0,0-.91-6.17,1,1,0,0,1-.08-1.19c.48-.73,2.88-4.42,3.57-5.3,1-1.21.83-2.38.22-2.87s-1.22-.17-1.88.62a56.6,56.6,0,0,0-4.25,6.1,1,1,0,0,1-1.26.39l-1.28-.58a1,1,0,0,1-.58-1.07c1.13-7,.64-9.2,0-9.79A1,1,0,0,0,233.48,214.55Z" fill="#093f68"></path><path d="M227.26,237.52a1,1,0,0,1-.23-2c2.25-.55,1.83-4.1,1.83-4.14a1,1,0,0,1,.95-1.12,12.55,12.55,0,0,0,5.32-1.16c-.91-.63-4.16-1.56-7.45-2.11a1,1,0,0,1,.33-2c2.39.4,8.05,1.5,9.06,3.26a1.53,1.53,0,0,1,.11,1.33c-.69,1.82-4.1,2.4-6.28,2.58,0,1.95-.75,4.63-3.4,5.27Zm8.08-8.2h0Z" fill="#093f68"></path><path d="M212,161.39H186.5a1,1,0,0,1,0-2H212a1,1,0,1,1,0,2Z" fill="#093f68"></path></g></svg>